<?xml version="1.0" encoding="iso-8859-1"?>
<!-- Uploaded to: SVG Repo, www.svgrepo.com, Generator: SVG Repo Mixer Tools -->
<svg fill="#000000" version="1.1" id="Layer_1" xmlns="http://www.w3.org/2000/svg" xmlns:xlink="http://www.w3.org/1999/xlink" 
	 viewBox="0 0 512 512" xml:space="preserve">
<g>
	<g>
		<path d="M147.554,170.746L0,512l341.254-147.555L147.554,170.746z M64.137,447.863l15.725-36.368l4.468,27.637L64.137,447.863z
			 M115.968,425.451L104.5,354.515l33.476-77.419l20.979,129.768L115.968,425.451z M190.592,393.184l-25.484-157.628l54.86,54.86
			l13.61,84.181L190.592,393.184z M260.345,330.793l22.502,22.502l-17.631,7.623L260.345,330.793z"/>
	</g>
</g>
<g>
	<g>
		
			<rect x="272.366" y="174.788" transform="matrix(0.7071 -0.7071 0.7071 0.7071 -41.5341 282.7197)" width="96.28" height="33.415"/>
	</g>
</g>
<g>
	<g>
		<path d="M346.792,253.384c-23.406,5.333-44.55,16.926-61.15,33.526l23.628,23.628c27.241-27.242,65.939-31.318,92.204-23.272
			l9.787-31.951C391.197,249.17,368.3,248.483,346.792,253.384z"/>
	</g>
</g>
<g>
	<g>
		<path d="M256.683,100.738l-31.951,9.787c8.046,26.266,3.971,64.962-23.27,92.204l23.628,23.628
			c16.6-16.599,28.193-37.745,33.524-61.15C263.516,143.698,262.83,120.803,256.683,100.738z"/>
	</g>
</g>
<g>
	<g>
		<polygon points="446.625,105.212 415.881,96.119 406.788,65.375 383.541,87.454 352.369,79.956 359.867,111.128 337.788,134.374 
			368.532,143.468 377.626,174.211 400.872,152.133 432.044,159.63 424.546,128.459 		"/>
	</g>
</g>
<g>
	<g>
		<polygon points="512,267.991 481.256,258.899 472.163,228.154 448.916,250.233 417.745,242.736 425.242,273.908 403.164,297.154 
			433.907,306.247 443.001,336.99 466.248,314.913 497.419,322.41 489.921,291.238 		"/>
	</g>
</g>
<g>
	<g>
		<polygon points="283.846,39.837 253.101,30.744 244.009,0 220.762,22.079 189.59,14.581 197.087,45.752 175.008,68.999 
			205.753,78.093 214.845,108.836 238.092,86.758 269.264,94.255 261.767,63.084 		"/>
	</g>
</g>
</svg>